# Alias OBJ Model File
# Exported from SketchUp, (c) 2000-2012 Trimble Navigation Limited
# File units = inches

mtllib triangle.mtl

g Mesh1 Model

usemtl FrontColor
v 0 0 -27.0625
vt 0 27.0625
vn 0 -1 -0
v 39.3125 0 -0
vt -39.3125 0
v 0 0 -0
vt 0 0
f 1/1/1 2/2/1 3/3/1

vt -32.3816 0
vn 0.567029 0 -0.823698
vt 15.3452 0
v 0 3.9375 -27.0625
vt 15.3452 3.9375
v 39.3125 3.9375 -0
vt -32.3816 3.9375
f 2/4/2 1/5/2 4/6/2 5/7/2 

vt -27.0625 0
vn -1 0 -0
v 0 3.9375 -0
vt 0 3.9375
vt -27.0625 3.9375
f 1/8/3 3/3/3 6/9/3 4/10/3 

vn 0 0 1
vt 39.3125 0
vt 39.3125 3.9375
f 3/3/4 2/11/4 5/12/4 6/9/4 

vn 0 1 -0
f 5/11/5 4/1/5 6/3/5

